<?xml version="1.0"?>

<svg width="100%" height="100%" viewBox="12 150 552 186" version="1.1" xmlns="http://www.w3.org/2000/svg" xmlns:xlink="http://www.w3.org/1999/xlink" xml:space="preserve" xmlns:serif="http://www.serif.com/" style="fill-rule:evenodd;clip-rule:evenodd;stroke-miterlimit:10;">
    <g transform="matrix(0.24,0,0,0.24,-133.534,-50.6947)">
        <g id="Laag-1" transform="matrix(4.16667,0,0,4.16667,0,0)">
            <g>
                <clipPath id="_clip1">
                    <path d="M158.962,204.428C155.831,204.428 153.293,206.966 153.293,210.099L153.293,374.094C153.293,377.224 155.831,379.765 158.962,379.767L686.206,380.176C689.337,380.18 691.876,377.643 691.876,374.511L691.876,210.099C691.876,206.966 689.338,204.428 686.207,204.428L158.962,204.428Z" clip-rule="nonzero"></path>
                </clipPath>
                <g clip-path="url(#_clip1)">
                    <g transform="matrix(566.693,0,0,566.693,136.82,292.304)">
                        <rect x="0.029" y="-0.155" width="0.95" height="0.31" style="fill:url(#_Linear2);"></rect>
                    </g>
                    <g transform="matrix(-1,0,0,1,840.333,-138.58)">
                        <rect x="136.82" y="192.561" width="566.693" height="348.734" style="fill:none;stroke:white;stroke-width:0.65px;"></rect>
                    </g>
                </g>
            </g>
            <g>
                <clipPath id="_clip3">
                    <path d="M158.962,204.428C155.831,204.428 153.293,206.966 153.293,210.099L153.293,374.094C153.293,377.224 155.831,379.765 158.962,379.767L686.206,380.176C689.337,380.18 691.876,377.643 691.876,374.511L691.876,210.099C691.876,206.966 689.338,204.428 686.207,204.428L158.962,204.428Z" clip-rule="nonzero"></path>
                </clipPath>
                <g clip-path="url(#_clip3)">
                    <g transform="matrix(1,-0,-0,1,133.534,50.6947)">
                        <use xlink:href="#_Image4" x="19.759" y="153.733" width="539px" height="176px"></use>
                    </g>
                </g>
            </g>
            <g transform="matrix(1,0,0,1,636.409,291.583)">
                <path d="M0,18.223C2.645,18.223 4.846,17.36 6.601,15.631C8.355,13.904 9.233,11.717 9.233,9.071C9.233,6.371 8.369,4.185 6.641,2.51C4.913,0.837 2.699,0 0,0C-2.646,0 -4.847,0.837 -6.601,2.51C-8.356,4.185 -9.233,6.371 -9.233,9.071C-9.233,11.717 -8.342,13.904 -6.56,15.631C-4.779,17.36 -2.592,18.223 0,18.223" style="fill:white;fill-rule:nonzero;"></path>
            </g>
            <g transform="matrix(1,0,0,1,216.03,254.188)">
                <path d="M0,39.127L0,26.416L30.885,26.416L30.885,11.718L0,11.718L0,0L35.056,0L35.056,-15.194L-19.464,-15.194L-19.464,54.321L36.347,54.321L36.347,39.127L0,39.127Z" style="fill:white;fill-rule:nonzero;"></path>
            </g>
            <g transform="matrix(1,0,0,1,400.89,291.749)">
                <path d="M0,-36.943L0,-53.443L-65.921,-53.443C-75.586,-53.443 -84.067,-47.333 -87.428,-38.984L-87.464,-38.984L-102.832,-7.731L-121.7,-53.016L-142.952,-53.016L-113.259,16.5L-93.894,16.5L-71.424,-31.647C-69.805,-34.57 -65.846,-36.943 -60.765,-36.943L0,-36.943Z" style="fill:white;fill-rule:nonzero;"></path>
            </g>
            <g transform="matrix(1,0,0,1,364.296,281.1)">
                <path d="M0,12.215L0,-0.496L30.885,-0.496L30.885,-15.194L0,-15.194L-19.464,-15.193L-19.464,27.409L36.347,27.409L36.347,12.215L0,12.215Z" style="fill:white;fill-rule:nonzero;"></path>
            </g>
            <g transform="matrix(1,0,0,1,474.676,269.631)">
                <path d="M0,8.242C2.349,4.502 3.526,0.116 3.526,-4.916C3.526,-10.145 2.267,-14.698 -0.248,-18.571C-2.765,-22.444 -6.34,-25.423 -10.973,-27.509C-15.608,-29.594 -21.07,-30.637 -27.359,-30.637L-59.138,-30.637L-59.138,38.879L-39.475,38.879L-39.475,20.407L-28.75,20.407L-16.138,38.879L4.916,38.879L-10.08,17.031C-5.71,14.913 -2.351,11.983 0,8.242M-16.336,-4.916C-16.336,-1.672 -17.363,0.828 -19.415,2.582C-21.468,4.336 -24.513,5.213 -28.551,5.213L-39.475,5.213L-39.475,-15.145L-28.551,-15.145C-24.513,-15.145 -21.468,-14.251 -19.415,-12.464C-17.363,-10.676 -16.336,-8.159 -16.336,-4.916" style="fill:white;fill-rule:nonzero;"></path>
            </g>
            <g transform="matrix(1,0,0,1,506.802,238.993)">
                <path d="M0,69.516L19.663,69.516L19.663,15.592L40.915,15.592L40.915,0L-21.351,0L-21.351,15.592L0,15.592L0,69.516Z" style="fill:white;fill-rule:nonzero;"></path>
            </g>
            <g transform="matrix(1,0,0,1,583.269,237.603)">
                <path d="M0,72.296C6.62,72.296 12.247,71.286 16.882,69.267C21.516,67.248 24.992,64.55 27.31,61.174C29.626,57.797 30.786,54.023 30.786,49.852C30.786,45.02 29.51,41.197 26.962,38.382C24.413,35.569 21.401,33.516 17.925,32.225C14.449,30.934 10.063,29.727 4.767,28.6C0.065,27.607 -3.344,26.648 -5.462,25.721C-7.582,24.794 -8.64,23.404 -8.64,21.55C-8.64,19.697 -7.746,18.19 -5.958,17.031C-4.171,15.874 -1.325,15.293 2.582,15.293C8.804,15.293 15.227,17.081 21.848,20.656L27.906,6.058C24.529,4.071 20.622,2.566 16.187,1.539C11.751,0.513 7.25,0 2.681,0C-4.006,0 -9.65,0.993 -14.251,2.979C-18.853,4.965 -22.312,7.664 -24.628,11.073C-26.947,14.483 -28.104,18.307 -28.104,22.543C-28.104,27.376 -26.847,31.217 -24.33,34.062C-21.815,36.91 -18.803,38.978 -15.293,40.269C-11.785,41.56 -7.415,42.769 -2.185,43.894C2.582,44.954 6.041,45.964 8.193,46.923C10.344,47.883 11.42,49.356 11.42,51.342C11.42,55.116 7.647,57.003 0.099,57.003C-3.873,57.003 -7.912,56.374 -12.016,55.116C-16.122,53.859 -19.73,52.203 -22.841,50.15L-29.296,64.649C-25.986,66.968 -21.683,68.82 -16.386,70.211C-11.09,71.601 -5.628,72.296 0,72.296" style="fill:white;fill-rule:nonzero;"></path>
            </g>
            <g transform="matrix(1,0,0,1,205.817,325.11)">
                <path d="M0,26.35C1.858,26.35 3.524,25.954 4.998,25.16C6.471,24.367 7.621,23.262 8.449,21.845C9.276,20.429 9.69,18.825 9.69,17.034C9.69,15.244 9.276,13.646 8.449,12.24C7.621,10.835 6.471,9.736 4.998,8.942C3.524,8.149 1.858,7.752 0,7.752C-1.836,7.752 -3.491,8.149 -4.964,8.942C-6.438,9.736 -7.588,10.835 -8.415,12.24C-9.243,13.646 -9.656,15.244 -9.656,17.034C-9.656,18.825 -9.243,20.429 -8.415,21.845C-7.588,23.262 -6.438,24.367 -4.964,25.16C-3.491,25.954 -1.836,26.35 0,26.35M0,22.712C-1.564,22.712 -2.851,22.191 -3.859,21.148C-4.868,20.106 -5.372,18.734 -5.372,17.034C-5.372,15.334 -4.868,13.963 -3.859,12.92C-2.851,11.878 -1.564,11.356 0,11.356C1.564,11.356 2.856,11.878 3.876,12.92C4.896,13.963 5.406,15.334 5.406,17.034C5.406,18.734 4.896,20.106 3.876,21.148C2.856,22.191 1.564,22.712 0,22.712M24.752,7.752C23.414,7.752 22.213,7.968 21.148,8.398C20.082,8.829 19.198,9.464 18.496,10.302L18.496,7.956L14.45,7.956L14.45,26.112L18.7,26.112L18.7,16.932C18.7,15.164 19.153,13.81 20.06,12.869C20.966,11.929 22.202,11.458 23.766,11.458C25.148,11.458 26.214,11.861 26.962,12.665C27.71,13.47 28.084,14.666 28.084,16.252L28.084,26.112L32.334,26.112L32.334,15.708C32.334,13.079 31.642,11.096 30.26,9.758C28.877,8.421 27.041,7.752 24.752,7.752M52.121,0.884L52.121,10.2C51.418,9.384 50.568,8.772 49.571,8.364C48.574,7.956 47.474,7.752 46.273,7.752C44.528,7.752 42.958,8.138 41.564,8.908C40.17,9.679 39.076,10.767 38.283,12.172C37.49,13.578 37.093,15.198 37.093,17.034C37.093,18.87 37.49,20.497 38.283,21.913C39.076,23.33 40.17,24.424 41.564,25.194C42.958,25.965 44.528,26.35 46.273,26.35C47.52,26.35 48.659,26.134 49.69,25.704C50.721,25.274 51.588,24.628 52.291,23.766L52.291,26.112L56.371,26.112L56.371,0.884L52.121,0.884ZM46.783,22.712C45.763,22.712 44.845,22.48 44.029,22.015C43.213,21.551 42.567,20.888 42.091,20.026C41.615,19.165 41.377,18.168 41.377,17.034C41.377,15.901 41.615,14.904 42.091,14.042C42.567,13.181 43.213,12.518 44.029,12.053C44.845,11.589 45.763,11.356 46.783,11.356C47.803,11.356 48.721,11.589 49.537,12.053C50.353,12.518 50.999,13.181 51.475,14.042C51.951,14.904 52.189,15.901 52.189,17.034C52.189,18.168 51.951,19.165 51.475,20.026C50.999,20.888 50.353,21.551 49.537,22.015C48.721,22.48 47.803,22.712 46.783,22.712M79.695,17.136C79.695,15.278 79.304,13.64 78.522,12.223C77.74,10.807 76.652,9.707 75.258,8.925C73.864,8.143 72.283,7.752 70.515,7.752C68.724,7.752 67.115,8.149 65.687,8.942C64.259,9.736 63.142,10.841 62.338,12.257C61.533,13.674 61.131,15.266 61.131,17.034C61.131,18.825 61.544,20.429 62.372,21.845C63.199,23.262 64.372,24.367 65.891,25.16C67.409,25.954 69.166,26.35 71.161,26.35C72.725,26.35 74.13,26.101 75.377,25.602C76.623,25.104 77.655,24.367 78.471,23.392L76.193,20.774C74.901,22.089 73.257,22.746 71.263,22.746C69.699,22.746 68.39,22.355 67.336,21.573C66.282,20.791 65.63,19.732 65.381,18.394L79.627,18.394C79.672,17.85 79.695,17.431 79.695,17.136M70.515,11.152C71.897,11.152 73.053,11.56 73.983,12.376C74.912,13.192 75.467,14.258 75.649,15.572L65.347,15.572C65.551,14.235 66.123,13.164 67.064,12.359C68.004,11.555 69.155,11.152 70.515,11.152M88.501,10.608L88.501,7.956L84.455,7.956L84.455,26.112L88.705,26.112L88.705,17.306C88.705,15.493 89.169,14.105 90.099,13.141C91.028,12.178 92.32,11.696 93.975,11.696C94.269,11.696 94.598,11.73 94.961,11.798L94.961,7.752C91.878,7.752 89.725,8.704 88.501,10.608M109.547,7.752C108.277,7.752 107.127,7.951 106.096,8.347C105.064,8.744 104.197,9.316 103.495,10.064L103.495,0.884L99.245,0.884L99.245,26.112L103.495,26.112L103.495,16.932C103.495,15.164 103.948,13.81 104.855,12.869C105.761,11.929 106.997,11.458 108.561,11.458C109.943,11.458 111.009,11.861 111.757,12.665C112.505,13.47 112.879,14.666 112.879,16.252L112.879,26.112L117.129,26.112L117.129,15.708C117.129,13.079 116.437,11.096 115.055,9.758C113.672,8.421 111.836,7.752 109.547,7.752M131.545,26.35C133.403,26.35 135.069,25.954 136.543,25.16C138.016,24.367 139.166,23.262 139.994,21.845C140.821,20.429 141.235,18.825 141.235,17.034C141.235,15.244 140.821,13.646 139.994,12.24C139.166,10.835 138.016,9.736 136.543,8.942C135.069,8.149 133.403,7.752 131.545,7.752C129.709,7.752 128.054,8.149 126.581,8.942C125.107,9.736 123.957,10.835 123.13,12.24C122.302,13.646 121.889,15.244 121.889,17.034C121.889,18.825 122.302,20.429 123.13,21.845C123.957,23.262 125.107,24.367 126.581,25.16C128.054,25.954 129.709,26.35 131.545,26.35M131.545,22.712C129.981,22.712 128.694,22.191 127.686,21.148C126.677,20.106 126.173,18.734 126.173,17.034C126.173,15.334 126.677,13.963 127.686,12.92C128.694,11.878 129.981,11.356 131.545,11.356C133.109,11.356 134.401,11.878 135.421,12.92C136.441,13.963 136.951,15.334 136.951,17.034C136.951,18.734 136.441,20.106 135.421,21.148C134.401,22.191 133.109,22.712 131.545,22.712M159.322,7.956L159.322,17.136C159.322,18.904 158.874,20.259 157.979,21.199C157.084,22.14 155.877,22.61 154.358,22.61C152.998,22.61 151.95,22.208 151.213,21.403C150.477,20.599 150.108,19.38 150.108,17.748L150.108,7.956L145.858,7.956L145.858,18.326C145.858,20.978 146.555,22.979 147.949,24.327C149.343,25.676 151.253,26.35 153.678,26.35C154.857,26.35 155.956,26.129 156.976,25.687C157.996,25.245 158.846,24.616 159.526,23.8L159.526,26.112L163.572,26.112L163.572,7.956L159.322,7.956ZM183.36,0.884L183.36,10.2C182.658,9.384 181.807,8.772 180.81,8.364C179.813,7.956 178.714,7.752 177.512,7.752C175.767,7.752 174.197,8.138 172.803,8.908C171.409,9.679 170.316,10.767 169.522,12.172C168.729,13.578 168.332,15.198 168.332,17.034C168.332,18.87 168.729,20.497 169.522,21.913C170.316,23.33 171.409,24.424 172.803,25.194C174.197,25.965 175.767,26.35 177.512,26.35C178.759,26.35 179.898,26.134 180.929,25.704C181.96,25.274 182.827,24.628 183.53,23.766L183.53,26.112L187.61,26.112L187.61,0.884L183.36,0.884ZM178.022,22.712C177.002,22.712 176.084,22.48 175.268,22.015C174.452,21.551 173.806,20.888 173.33,20.026C172.854,19.165 172.616,18.168 172.616,17.034C172.616,15.901 172.854,14.904 173.33,14.042C173.806,13.181 174.452,12.518 175.268,12.053C176.084,11.589 177.002,11.356 178.022,11.356C179.042,11.356 179.96,11.589 180.776,12.053C181.592,12.518 182.238,13.181 182.714,14.042C183.19,14.904 183.428,15.901 183.428,17.034C183.428,18.168 183.19,19.165 182.714,20.026C182.238,20.888 181.592,21.551 180.776,22.015C179.96,22.48 179.042,22.712 178.022,22.712M224.534,23.732L221.542,20.876C222.516,19.358 223.23,17.544 223.684,15.436L220.25,14.314C219.932,15.878 219.49,17.216 218.924,18.326L213.79,13.43C215.512,12.456 216.753,11.492 217.513,10.54C218.272,9.588 218.652,8.5 218.652,7.276C218.652,5.667 218.074,4.392 216.918,3.451C215.762,2.511 214.22,2.04 212.294,2.04C210.208,2.04 208.537,2.556 207.279,3.587C206.021,4.619 205.392,5.973 205.392,7.65C205.392,8.534 205.596,9.39 206.004,10.217C206.412,11.045 207.092,11.934 208.044,12.886C206.094,13.974 204.689,15.079 203.828,16.201C202.966,17.323 202.536,18.621 202.536,20.094C202.536,21.318 202.91,22.412 203.658,23.375C204.406,24.339 205.437,25.092 206.752,25.636C208.066,26.18 209.551,26.452 211.206,26.452C214.311,26.452 216.974,25.5 219.196,23.596L222.188,26.486L224.534,23.732ZM212.294,5.066C213.155,5.066 213.829,5.27 214.317,5.678C214.804,6.086 215.048,6.642 215.048,7.344C215.048,8.002 214.781,8.608 214.249,9.163C213.716,9.719 212.77,10.37 211.41,11.118C210.571,10.28 210.004,9.617 209.71,9.129C209.415,8.642 209.268,8.126 209.268,7.582C209.268,6.834 209.54,6.228 210.084,5.763C210.628,5.299 211.364,5.066 212.294,5.066M211.512,22.984C210.061,22.984 208.894,22.678 208.01,22.066C207.126,21.454 206.684,20.65 206.684,19.652C206.684,18.791 206.961,18.015 207.517,17.323C208.072,16.632 209.03,15.912 210.39,15.164L216.68,21.182C215.206,22.384 213.484,22.984 211.512,22.984M242.723,10.608L242.723,7.956L238.677,7.956L238.677,26.112L242.927,26.112L242.927,17.306C242.927,15.493 243.391,14.105 244.321,13.141C245.25,12.178 246.542,11.696 248.197,11.696C248.491,11.696 248.82,11.73 249.183,11.798L249.183,7.752C246.1,7.752 243.947,8.704 242.723,10.608M270.365,17.136C270.365,15.278 269.974,13.64 269.192,12.223C268.41,10.807 267.322,9.707 265.928,8.925C264.534,8.143 262.953,7.752 261.185,7.752C259.394,7.752 257.785,8.149 256.357,8.942C254.929,9.736 253.812,10.841 253.008,12.257C252.203,13.674 251.801,15.266 251.801,17.034C251.801,18.825 252.214,20.429 253.042,21.845C253.869,23.262 255.042,24.367 256.561,25.16C258.079,25.954 259.836,26.35 261.831,26.35C263.395,26.35 264.8,26.101 266.047,25.602C267.293,25.104 268.325,24.367 269.141,23.392L266.863,20.774C265.571,22.089 263.927,22.746 261.933,22.746C260.369,22.746 259.06,22.355 258.006,21.573C256.952,20.791 256.3,19.732 256.051,18.394L270.297,18.394C270.342,17.85 270.365,17.431 270.365,17.136M261.185,11.152C262.567,11.152 263.723,11.56 264.653,12.376C265.582,13.192 266.137,14.258 266.319,15.572L256.017,15.572C256.221,14.235 256.793,13.164 257.734,12.359C258.674,11.555 259.825,11.152 261.185,11.152M285.427,7.752C284.089,7.752 282.888,7.968 281.823,8.398C280.757,8.829 279.873,9.464 279.171,10.302L279.171,7.956L275.125,7.956L275.125,26.112L279.375,26.112L279.375,16.932C279.375,15.164 279.828,13.81 280.735,12.869C281.641,11.929 282.877,11.458 284.441,11.458C285.823,11.458 286.889,11.861 287.637,12.665C288.385,13.47 288.759,14.666 288.759,16.252L288.759,26.112L293.009,26.112L293.009,15.708C293.009,13.079 292.317,11.096 290.935,9.758C289.552,8.421 287.716,7.752 285.427,7.752M307.424,26.35C309.283,26.35 310.949,25.954 312.423,25.16C313.896,24.367 315.046,23.262 315.874,21.845C316.701,20.429 317.115,18.825 317.115,17.034C317.115,15.244 316.701,13.646 315.874,12.24C315.046,10.835 313.896,9.736 312.423,8.942C310.949,8.149 309.283,7.752 307.424,7.752C305.589,7.752 303.934,8.149 302.461,8.942C300.987,9.736 299.837,10.835 299.01,12.24C298.182,13.646 297.768,15.244 297.768,17.034C297.768,18.825 298.182,20.429 299.01,21.845C299.837,23.262 300.987,24.367 302.461,25.16C303.934,25.954 305.589,26.35 307.424,26.35M307.424,22.712C305.861,22.712 304.574,22.191 303.565,21.148C302.557,20.106 302.052,18.734 302.052,17.034C302.052,15.334 302.557,13.963 303.565,12.92C304.574,11.878 305.861,11.356 307.424,11.356C308.989,11.356 310.281,11.878 311.301,12.92C312.32,13.963 312.831,15.334 312.831,17.034C312.831,18.734 312.32,20.106 311.301,21.148C310.281,22.191 308.989,22.712 307.424,22.712M334.284,7.956L328.47,21.42L322.826,7.956L318.406,7.956L326.192,26.112L330.578,26.112L338.364,7.956L334.284,7.956ZM348.054,7.752C346.558,7.752 345.141,7.945 343.804,8.33C342.466,8.716 341.322,9.271 340.37,9.996L342.036,13.09C342.716,12.524 343.549,12.082 344.535,11.764C345.521,11.447 346.524,11.288 347.544,11.288C349.04,11.288 350.167,11.628 350.927,12.308C351.686,12.988 352.066,13.963 352.066,15.232L352.066,15.504L347.374,15.504C344.767,15.504 342.857,15.997 341.645,16.983C340.432,17.969 339.826,19.278 339.826,20.91C339.826,21.953 340.103,22.888 340.659,23.715C341.214,24.543 342.002,25.189 343.022,25.653C344.042,26.117 345.232,26.35 346.592,26.35C347.952,26.35 349.113,26.14 350.077,25.721C351.04,25.302 351.782,24.696 352.304,23.902L352.304,26.112L356.316,26.112L356.316,15.47C356.316,12.886 355.607,10.954 354.191,9.673C352.774,8.393 350.728,7.752 348.054,7.752M347.476,23.256C346.388,23.256 345.538,23.03 344.926,22.576C344.314,22.123 344.008,21.511 344.008,20.74C344.008,19.131 345.232,18.326 347.68,18.326L352.066,18.326L352.066,20.434C351.726,21.341 351.142,22.038 350.315,22.525C349.487,23.013 348.541,23.256 347.476,23.256M372.16,22.1C371.525,22.599 370.732,22.848 369.78,22.848C368.964,22.848 368.34,22.616 367.91,22.151C367.479,21.687 367.264,21.012 367.264,20.128L367.264,11.492L372.126,11.492L372.126,8.092L367.264,8.092L367.264,3.944L363.014,3.944L363.014,8.092L360.022,8.092L360.022,11.492L363.014,11.492L363.014,20.23C363.014,22.225 363.558,23.744 364.646,24.786C365.734,25.829 367.275,26.35 369.27,26.35C370.063,26.35 370.817,26.248 371.531,26.044C372.245,25.84 372.851,25.534 373.35,25.126L372.16,22.1ZM377.531,26.112L381.781,26.112L381.781,7.956L377.531,7.956L377.531,26.112ZM379.673,4.964C380.467,4.964 381.118,4.709 381.628,4.199C382.138,3.689 382.393,3.06 382.393,2.312C382.393,1.61 382.133,1.026 381.612,0.561C381.09,0.097 380.444,-0.136 379.673,-0.136C378.903,-0.136 378.257,0.108 377.735,0.595C377.214,1.083 376.953,1.689 376.953,2.414C376.953,3.14 377.214,3.746 377.735,4.233C378.257,4.721 378.903,4.964 379.673,4.964M405.105,17.136C405.105,15.278 404.714,13.64 403.932,12.223C403.15,10.807 402.062,9.707 400.668,8.925C399.274,8.143 397.693,7.752 395.925,7.752C394.134,7.752 392.525,8.149 391.097,8.942C389.669,9.736 388.552,10.841 387.748,12.257C386.943,13.674 386.541,15.266 386.541,17.034C386.541,18.825 386.954,20.429 387.782,21.845C388.609,23.262 389.782,24.367 391.301,25.16C392.819,25.954 394.576,26.35 396.571,26.35C398.135,26.35 399.54,26.101 400.787,25.602C402.033,25.104 403.065,24.367 403.881,23.392L401.603,20.774C400.311,22.089 398.667,22.746 396.673,22.746C395.109,22.746 393.8,22.355 392.746,21.573C391.692,20.791 391.04,19.732 390.791,18.394L405.037,18.394C405.082,17.85 405.105,17.431 405.105,17.136M395.925,11.152C397.307,11.152 398.463,11.56 399.393,12.376C400.322,13.192 400.877,14.258 401.059,15.572L390.757,15.572C390.961,14.235 391.533,13.164 392.474,12.359C393.414,11.555 394.565,11.152 395.925,11.152" style="fill:white;fill-rule:nonzero;"></path>
            </g>
        </g>
    </g>
    <defs>
        <linearGradient id="_Linear2" x1="0" y1="0" x2="1" y2="0" gradientUnits="userSpaceOnUse" gradientTransform="matrix(1,-0,0,-1,0,-4.85271e-07)"><stop offset="0" style="stop-color:rgb(20,78,47);stop-opacity:1"></stop><stop offset="0" style="stop-color:rgb(20,78,47);stop-opacity:1"></stop><stop offset="0.17" style="stop-color:rgb(9,122,53);stop-opacity:1"></stop><stop offset="0.35" style="stop-color:rgb(61,170,53);stop-opacity:1"></stop><stop offset="0.86" style="stop-color:rgb(9,122,53);stop-opacity:1"></stop><stop offset="1" style="stop-color:rgb(20,78,47);stop-opacity:1"></stop></linearGradient>
        <image id="_Image4" width="539px" height="176px"></image>
    </defs>
</svg>